<svg xmlns="http://www.w3.org/2000/svg" viewBox="0 0 817 118">
  <title>CLC-Logo-IconWindow-Solid-Parent-French</title>
  <g>
    <g>
      <rect x="50.87" y="51.11" width="15.79" height="15.79" transform="translate(-24.51 58.83) rotate(-45)" style="fill: #fff"/>
      <path d="M58.76,1.44A57.56,57.56,0,1,0,116.32,59,57.63,57.63,0,0,0,58.76,1.44ZM91.43,70.58a3.52,3.52,0,0,1-5,5L74.89,64,63.73,75.13,75.31,86.71a3.52,3.52,0,0,1-5,5L58.76,80.09,47.18,91.67a3.52,3.52,0,0,1-5-5L53.8,75.13,42.64,64,31.06,75.54a3.28,3.28,0,0,1-4.76-.2,3.28,3.28,0,0,1-.2-4.76L37.67,59,26.1,47.42a3.28,3.28,0,0,1,.2-4.76,3.28,3.28,0,0,1,4.76-.2L42.64,54,53.8,42.87,42.22,31.29a3.28,3.28,0,0,1,.2-4.76,3.28,3.28,0,0,1,4.76-.2L58.76,37.91,70.34,26.33a3.28,3.28,0,0,1,4.76.2,3.28,3.28,0,0,1,.2,4.76L63.73,42.87,74.89,54,86.47,42.46a3.52,3.52,0,0,1,5,5L79.85,59Z" style="fill: #fff"/>
    </g>
    <g>
      <path d="M178.06,77.3l-6.35,3.64a8.06,8.06,0,0,0-7.21-4c-4.79,0-8.34,3.6-8.34,8.8,0,5.63,3.86,8.8,8.36,8.8a8.44,8.44,0,0,0,7.32-4l5.94,4.2a15.36,15.36,0,0,1-13.19,6.72c-9.36,0-16-6.54-16-15.73S155.23,70,164.58,70C170.39,70,175.46,72.71,178.06,77.3Z" style="fill: #fff"/>
      <path d="M202.16,100.89l-2.3-6.37h-12l-2.3,6.37H178L189.6,70.56h8.64l11.63,30.33ZM197.52,88l-3.68-10.23L190.16,88Z" style="fill: #fff"/>
      <path d="M233.23,100.89,219.4,82.39v18.5h-7.24V70.56h6.93l13.82,18.5V70.56h7.26v30.33Z" style="fill: #fff"/>
      <path d="M266.67,100.89l-2.3-6.37h-12l-2.3,6.37h-7.56l11.63-30.33h8.64l11.63,30.33ZM262,88l-3.68-10.23L254.67,88Z" style="fill: #fff"/>
      <path d="M305.41,85.73c0,9.14-6.28,15.17-15.75,15.17h-13V70.56h13C299.13,70.56,305.41,76.58,305.41,85.73ZM283.92,94.2h5.59c5.63,0,8.34-3.57,8.34-8.47s-2.71-8.47-8.34-8.47h-5.59Z" style="fill: #fff"/>
      <path d="M328.7,100.89l-2.3-6.37h-12l-2.3,6.37H304.5l11.63-30.33h8.64l11.63,30.33ZM324.06,88l-3.68-10.23L316.69,88Z" style="fill: #fff"/>
      <path d="M430.95,100.89h-7.24V70.56h13c7.5,0,11.46,4,11.46,10.12s-4,10-11.4,10h-5.83Zm0-16.7h5.65c2.62,0,4.2-1.19,4.2-3.51s-1.58-3.55-4.2-3.55h-5.65Z" style="fill: #fff"/>
      <path d="M476.09,80.27c0,4.79-3,8.19-8.47,9.06l8.71,11.57H467.7l-8-11.35h-1.06v11.35h-7.24V70.56h13.19C472.12,70.56,476.09,74.29,476.09,80.27Zm-17.44,3.18h5.87c2.62,0,4.2-1,4.2-3.18s-1.65-3.14-4.2-3.14h-5.87Z" style="fill: #fff"/>
      <path d="M510.46,85.73c0,9.08-6.63,15.73-16,15.73s-16-6.65-16-15.73S485.11,70,494.47,70,510.46,76.65,510.46,85.73Zm-24.44,0c0,5.2,3.51,8.8,8.45,8.8s8.45-3.6,8.45-8.8-3.51-8.8-8.45-8.8S486,80.53,486,85.73Z" style="fill: #fff"/>
      <path d="M541.05,74.4l-5.16,5.07a8.46,8.46,0,0,0-6.48-2.66c-4.85,0-8.34,3.64-8.34,8.93,0,5.81,3.86,9.1,8.36,9.1,4.33,0,6.82-1.86,7.67-5.48h-7.39V83.76h14.56a16.49,16.49,0,0,1,.15,2.27c0,9.71-6.93,15.4-14.73,15.4-9,0-16.08-6.26-16.08-15.71,0-9.21,6.69-15.73,16.14-15.73C534.62,70,538.39,71.62,541.05,74.4Z" style="fill: #fff"/>
      <path d="M572.91,80.27c0,4.79-3,8.19-8.47,9.06l8.71,11.57h-8.62l-8-11.35h-1.06v11.35h-7.24V70.56h13.19C568.95,70.56,572.91,74.29,572.91,80.27Zm-17.44,3.18h5.87c2.62,0,4.2-1,4.2-3.18s-1.65-3.14-4.2-3.14h-5.87Z" style="fill: #fff"/>
      <path d="M598.86,100.89l-2.3-6.37h-12l-2.3,6.37h-7.56l11.63-30.33h8.64l11.63,30.33ZM594.22,88l-3.68-10.23L586.86,88Z" style="fill: #fff"/>
      <path d="M636,100.89V80.14L629.95,98h-7.69L616.19,80.2v20.69H609V70.56H619.2l6.91,19.26L633,70.56h10.27v30.33Z" style="fill: #fff"/>
      <path d="M349.61,100.89V70.56h23.14v6.52h-15.9v5.24h15v6.5h-15v5.55h16v6.52Z" style="fill: #fff"/>
      <path d="M398.48,100.89l-13.82-18.5v18.5h-7.24V70.56h6.93l13.82,18.5V70.56h7.26v30.33Z" style="fill: #fff"/>
      <path d="M675.56,100.89V80.14L669.49,98H661.8L655.73,80.2v20.69H648.5V70.56h10.25l6.91,19.26,6.87-19.26h10.27v30.33Z" style="fill: #fff"/>
      <path d="M709.37,100.89l-2.3-6.37H695l-2.3,6.37h-7.56l11.63-30.33h8.64l11.63,30.33ZM704.74,88l-3.68-10.23L697.37,88Z" style="fill: #fff"/>
      <path d="M729.7,77.28v23.62h-7.24V77.28h-9V70.56h25.2v6.72Z" style="fill: #fff"/>
      <path d="M741.29,100.89V70.56h7.24v30.33Z" style="fill: #fff"/>
      <path d="M784.14,85.73c0,9.08-6.63,15.73-16,15.73s-16-6.65-16-15.73S758.8,70,768.16,70,784.14,76.65,784.14,85.73Zm-24.44,0c0,5.2,3.51,8.8,8.45,8.8s8.45-3.6,8.45-8.8-3.51-8.8-8.45-8.8S759.71,80.53,759.71,85.73Z" style="fill: #fff"/>
      <path d="M808.84,100.89,795,82.39v18.5h-7.24V70.56h6.93l13.82,18.5V70.56h7.26v30.33Z" style="fill: #fff"/>
    </g>
    <g>
      <path d="M165.59,16.41h2.46V30a9.59,9.59,0,0,1-2.27,6.59,8.88,8.88,0,0,1-12.48,0A9.59,9.59,0,0,1,151,30V16.41h2.46V30.07A7.58,7.58,0,0,0,155.07,35a5.5,5.5,0,0,0,4.48,1.92A5.36,5.36,0,0,0,164,35a7.6,7.6,0,0,0,1.6-4.93Z" style="fill: #fff"/>
      <path d="M174.52,23.16v1.92a6.43,6.43,0,0,1,5-2.3c4,0,6.24,2.5,6.24,6.94v9.12h-2.4V29.53c0-2.91-1.47-4.54-4-4.54-3.07,0-4.74,2.34-4.74,6.08v7.78h-2.37V23.16Z" style="fill: #fff"/>
      <path d="M201.59,45h-2.37V23.16h2.3V25.3a6.74,6.74,0,0,1,5.34-2.53,6.59,6.59,0,0,1,5.25,2.4,8.52,8.52,0,0,1,2,5.82,8.52,8.52,0,0,1-2,5.82,6.66,6.66,0,0,1-5.25,2.37,6.58,6.58,0,0,1-5.28-2.43Zm10.14-14a6.5,6.5,0,0,0-1.38-4.29,4.56,4.56,0,0,0-3.71-1.7,4.62,4.62,0,0,0-3.74,1.7A6.5,6.5,0,0,0,201.53,31a6.51,6.51,0,0,0,1.38,4.29,4.62,4.62,0,0,0,3.74,1.7,4.56,4.56,0,0,0,3.71-1.7A6.51,6.51,0,0,0,211.74,31Z" style="fill: #fff"/>
      <path d="M226,25.24a3,3,0,0,0-.54,0c-3.71,0-5.22,1.86-5.22,6.94v6.69h-2.37V23.16h2.3v2.08a5.81,5.81,0,0,1,5.12-2.3,5.14,5.14,0,0,1,.7,0Z" style="fill: #fff"/>
      <path d="M229.65,36.82A8.2,8.2,0,0,1,227.41,31a8.2,8.2,0,0,1,2.24-5.82,7.81,7.81,0,0,1,11.26,0,8.12,8.12,0,0,1,2.3,5.82,8.23,8.23,0,0,1-2.27,5.82,7.92,7.92,0,0,1-11.3,0Zm9.57-1.54A6.24,6.24,0,0,0,240.75,31a6.1,6.1,0,0,0-1.54-4.26,5.31,5.31,0,0,0-7.84,0A6.1,6.1,0,0,0,229.84,31a6.24,6.24,0,0,0,1.54,4.29,5.38,5.38,0,0,0,7.84,0Z" style="fill: #fff"/>
      <path d="M248.26,40.25a5.21,5.21,0,0,0,4.77,3c3.36,0,5.18-2.18,5.18-5.47V36.12a6,6,0,0,1-5.12,2.37A6.54,6.54,0,0,1,248,36.25a8,8,0,0,1-2-5.6A8,8,0,0,1,248,25a6.54,6.54,0,0,1,5.06-2.24,6.21,6.21,0,0,1,5.18,2.4v-2h2.3v14.4c0,4.77-2.91,7.84-7.55,7.84a7.27,7.27,0,0,1-6.5-3.49Zm1.54-5.57a4.44,4.44,0,0,0,3.52,1.57,4.51,4.51,0,0,0,3.55-1.57,5.89,5.89,0,0,0,1.41-4,5.92,5.92,0,0,0-1.41-4.06A4.5,4.5,0,0,0,253.32,25a4.44,4.44,0,0,0-3.52,1.57,5.9,5.9,0,0,0-1.38,4.06A5.88,5.88,0,0,0,249.8,34.68Z" style="fill: #fff"/>
      <path d="M273.15,25.24a2.94,2.94,0,0,0-.54,0c-3.71,0-5.22,1.86-5.22,6.94v6.69H265V23.16h2.3v2.08a5.81,5.81,0,0,1,5.12-2.3,5.13,5.13,0,0,1,.7,0Z" style="fill: #fff"/>
      <path d="M275.16,34.42c0-3.1,2.34-4.93,5.79-4.93a15.4,15.4,0,0,1,4.29.77v-1.6c0-2.34-1.57-3.68-3.87-3.68a4.47,4.47,0,0,0-4.1,2.59L275.64,26a6.2,6.2,0,0,1,5.76-3.26c3.81,0,6.21,2.21,6.21,6.14v9.92h-2.3V37.21a6.2,6.2,0,0,1-4.86,2C277.47,39.19,275.16,37.4,275.16,34.42Zm5.41,2.66a5.88,5.88,0,0,0,4.67-2.5V32.47a13.26,13.26,0,0,0-4.16-.77c-2.4,0-3.55,1.12-3.55,2.78S278.78,37.08,280.57,37.08Z" style="fill: #fff"/>
      <path d="M294.22,23.16V25a5.64,5.64,0,0,1,4.51-2.27,5,5,0,0,1,4.67,2.59,5.62,5.62,0,0,1,4.9-2.59c4,0,6,2.3,6,6.94v9.12H312V29.53c0-3-1.22-4.54-3.65-4.54-2.59,0-4,1.89-4,5.22v8.64h-2.37V29.69c0-3.14-1.18-4.7-3.52-4.7-2.69,0-4.13,1.89-4.13,5.22v8.64h-2.37V23.16Z" style="fill: #fff"/>
      <path d="M321,23.16V25a5.64,5.64,0,0,1,4.51-2.27,5,5,0,0,1,4.67,2.59,5.62,5.62,0,0,1,4.9-2.59c4,0,6,2.3,6,6.94v9.12h-2.37V29.53c0-3-1.22-4.54-3.65-4.54-2.59,0-4,1.89-4,5.22v8.64H328.7V29.69c0-3.14-1.18-4.7-3.52-4.7-2.69,0-4.13,1.89-4.13,5.22v8.64h-2.37V23.16Z" style="fill: #fff"/>
      <path d="M358.78,31.73H347.1c.22,3.3,2.21,5.25,5.28,5.25a5.58,5.58,0,0,0,4.48-2.3l1.63,1.5a7.64,7.64,0,0,1-6.11,3,7.35,7.35,0,0,1-5.63-2.24,8.34,8.34,0,0,1-2.08-5.86,9.07,9.07,0,0,1,1.92-5.92A7,7,0,0,1,355.83,24a7.79,7.79,0,0,1,3,6.62Zm-11.58-2.11h9.21c-.22-2.78-2-4.61-4.54-4.61S347.61,26.9,347.19,29.62Z" style="fill: #fff"/>
      <path d="M378.75,37a5.58,5.58,0,0,0,4.48-2.3l1.63,1.5a7.65,7.65,0,0,1-6.11,3,7.35,7.35,0,0,1-5.63-2.24A8.35,8.35,0,0,1,371,31.09,9.08,9.08,0,0,1,373,25.17a6.4,6.4,0,0,1,5.22-2.4A6.6,6.6,0,0,1,384.51,27a9.73,9.73,0,0,1,.67,3.65c0,.35,0,.74,0,1.09H373.47C373.69,35,375.67,37,378.75,37Zm-5.18-7.36h9.22c-.22-2.78-2-4.61-4.54-4.61S374,26.9,373.56,29.62Zm5.5-13.21h3.1l-3.65,4.19h-2.37Z" style="fill: #fff"/>
      <path d="M400.6,25.24V16.41H403V38.84H400.7V36.69a6.82,6.82,0,0,1-5.38,2.5,6.66,6.66,0,0,1-5.25-2.37A8.52,8.52,0,0,1,388,31a8.52,8.52,0,0,1,2-5.82,6.59,6.59,0,0,1,5.25-2.4A6.7,6.7,0,0,1,400.6,25.24ZM390.46,31a6.5,6.5,0,0,0,1.38,4.29,4.56,4.56,0,0,0,3.71,1.7,4.62,4.62,0,0,0,3.74-1.7A6.52,6.52,0,0,0,400.7,31a6.52,6.52,0,0,0-1.41-4.29,4.62,4.62,0,0,0-3.74-1.7,4.56,4.56,0,0,0-3.71,1.7A6.5,6.5,0,0,0,390.46,31Z" style="fill: #fff"/>
      <path d="M418,38.84v-2a5.94,5.94,0,0,1-5,2.34c-3.94,0-5.89-2.3-5.89-6.91V23.16h2.37v9.22c0,3,1.31,4.58,3.84,4.58,3,0,4.54-2.21,4.54-6V23.16h2.37V38.84Z" style="fill: #fff"/>
      <path d="M438,36.18a7.77,7.77,0,0,1-6.27,3,7.51,7.51,0,0,1-5.63-2.37A8.2,8.2,0,0,1,423.87,31a8,8,0,0,1,2.3-5.79,7.56,7.56,0,0,1,5.66-2.43,7.27,7.27,0,0,1,5.86,2.78l-1.6,1.57A5.37,5.37,0,0,0,431.83,25a5.14,5.14,0,0,0-4,1.73A6,6,0,0,0,426.3,31c0,3.49,2.14,6,5.63,6a5.44,5.44,0,0,0,4.45-2.3Z" style="fill: #fff"/>
      <path d="M440.55,34.42c0-3.1,2.34-4.93,5.79-4.93a15.39,15.39,0,0,1,4.29.77v-1.6c0-2.34-1.57-3.68-3.87-3.68a4.47,4.47,0,0,0-4.1,2.59L441,26a6.2,6.2,0,0,1,5.76-3.26c3.81,0,6.21,2.21,6.21,6.14v9.92h-2.3V37.21a6.2,6.2,0,0,1-4.86,2C442.85,39.19,440.55,37.4,440.55,34.42ZM446,37.08a5.88,5.88,0,0,0,4.67-2.5V32.47a13.25,13.25,0,0,0-4.16-.77c-2.4,0-3.55,1.12-3.55,2.78S444.16,37.08,446,37.08Z" style="fill: #fff"/>
      <path d="M457.72,34.23v-8.9h-2.56V23.16h2.56V18.78h2.37v4.38h3.65v2.18h-3.65v8.54c0,2,.51,2.85,2.4,2.85l1.25,0v2.14c-.42,0-.93.06-1.47.06C459.19,38.9,457.72,37.59,457.72,34.23Z" style="fill: #fff"/>
      <path d="M466.77,16.57a1.84,1.84,0,0,1,2.53,0,1.72,1.72,0,0,1,0,2.53,1.79,1.79,0,0,1-2.53-2.53Zm.1,22.27V23.16h2.37V38.84Z" style="fill: #fff"/>
      <path d="M480.86,16.44v2.14H480c-2.34,0-3.17,1.06-3.17,3.39v1.18h3.65v2.18h-3.65v13.5h-2.37V25.33h-2.56V23.16h2.56V22c0-3.87,1.89-5.57,5.5-5.57Z" style="fill: #fff"/>
      <path d="M504.76,25.24V16.41h2.37V38.84h-2.27V36.69a6.82,6.82,0,0,1-5.38,2.5,6.66,6.66,0,0,1-5.25-2.37,8.52,8.52,0,0,1-2-5.82,8.52,8.52,0,0,1,2-5.82,6.59,6.59,0,0,1,5.25-2.4A6.7,6.7,0,0,1,504.76,25.24ZM494.62,31A6.5,6.5,0,0,0,496,35.29a4.56,4.56,0,0,0,3.71,1.7,4.62,4.62,0,0,0,3.74-1.7A6.52,6.52,0,0,0,504.86,31a6.52,6.52,0,0,0-1.41-4.29,4.62,4.62,0,0,0-3.74-1.7,4.56,4.56,0,0,0-3.71,1.7A6.5,6.5,0,0,0,494.62,31Z" style="fill: #fff"/>
      <path d="M525.78,31.73H514.1c.22,3.3,2.21,5.25,5.28,5.25a5.58,5.58,0,0,0,4.48-2.3l1.63,1.5a7.64,7.64,0,0,1-6.11,3,7.35,7.35,0,0,1-5.63-2.24,8.34,8.34,0,0,1-2.08-5.86,9.07,9.07,0,0,1,1.92-5.92A7,7,0,0,1,522.83,24a7.79,7.79,0,0,1,3,6.62Zm-11.58-2.11h9.21c-.22-2.78-2-4.61-4.54-4.61S514.61,26.9,514.19,29.62Z" style="fill: #fff"/>
    </g>
  </g>
</svg>
