<svg xmlns="http://www.w3.org/2000/svg" viewBox="0 0 705 118">
  <title>CLC-Logo-IconWindow-Solid-Parent-English</title>
  <g>
    <g>
      <path d="M162.31,16.72l8.61,22.12h-2.59l-2-5.08H155.53l-2,5.08H151l8.65-22.12Zm-1.39,3.09-4.45,11.64h9Z" style="fill: #fff"/>
      <path d="M175.64,23.38v1.89A6.34,6.34,0,0,1,180.53,23c3.94,0,6.15,2.46,6.15,6.85v9h-2.37V29.66c0-2.87-1.45-4.48-3.94-4.48-3,0-4.67,2.3-4.67,6v7.67h-2.33V23.38Z" style="fill: #fff"/>
      <path d="M212.87,31.83H201.36c.22,3.25,2.18,5.17,5.21,5.17A5.5,5.5,0,0,0,211,34.74l1.61,1.48a7.54,7.54,0,0,1-6,3A7.25,7.25,0,0,1,201,37,8.23,8.23,0,0,1,199,31.2a9,9,0,0,1,1.89-5.84A6.88,6.88,0,0,1,210,24.23a7.68,7.68,0,0,1,2.93,6.53Zm-11.42-2.08h9.09c-.22-2.74-1.92-4.54-4.48-4.54S201.86,27.07,201.45,29.75Z" style="fill: #fff"/>
      <path d="M228.08,25.43V16.72h2.33V38.84h-2.24V36.72a6.73,6.73,0,0,1-5.3,2.46,6.57,6.57,0,0,1-5.17-2.33,8.4,8.4,0,0,1-2-5.74,8.4,8.4,0,0,1,2-5.74A6.5,6.5,0,0,1,222.87,23,6.61,6.61,0,0,1,228.08,25.43Zm-10,5.68a6.41,6.41,0,0,0,1.36,4.23A4.49,4.49,0,0,0,223.09,37a4.56,4.56,0,0,0,3.69-1.67,6.43,6.43,0,0,0,1.39-4.23,6.43,6.43,0,0,0-1.39-4.23,4.56,4.56,0,0,0-3.69-1.67,4.49,4.49,0,0,0-3.66,1.67A6.41,6.41,0,0,0,218.08,31.11Z" style="fill: #fff"/>
      <path d="M245.17,38.84v-2a5.86,5.86,0,0,1-4.89,2.3c-3.88,0-5.81-2.27-5.81-6.81v-9h2.33v9.09c0,2.93,1.29,4.51,3.79,4.51,3,0,4.48-2.18,4.48-5.93V23.38h2.33V38.84Z" style="fill: #fff"/>
      <path d="M264.87,36.22a7.66,7.66,0,0,1-6.18,3,7.41,7.41,0,0,1-5.55-2.33,8.08,8.08,0,0,1-2.21-5.74,7.93,7.93,0,0,1,2.27-5.71,7.45,7.45,0,0,1,5.58-2.4,7.17,7.17,0,0,1,5.77,2.74L263,27.29a5.3,5.3,0,0,0-4.2-2.08,5.07,5.07,0,0,0-3.91,1.7,5.9,5.9,0,0,0-1.55,4.2c0,3.44,2.11,5.9,5.55,5.9a5.36,5.36,0,0,0,4.39-2.27Z" style="fill: #fff"/>
      <path d="M267.34,34.48c0-3.06,2.3-4.86,5.71-4.86a15.19,15.19,0,0,1,4.23.76V28.8c0-2.3-1.55-3.63-3.82-3.63a4.41,4.41,0,0,0-4,2.56l-1.61-1.51A6.11,6.11,0,0,1,273.49,23c3.75,0,6.12,2.18,6.12,6.06v9.78h-2.27V37.23a6.11,6.11,0,0,1-4.8,2C269.61,39.18,267.34,37.42,267.34,34.48Zm5.33,2.62a5.8,5.8,0,0,0,4.61-2.46V32.56a13.06,13.06,0,0,0-4.1-.76c-2.37,0-3.5,1.1-3.5,2.75S270.9,37.1,272.67,37.1Z" style="fill: #fff"/>
      <path d="M284.23,34.29V25.52h-2.52V23.38h2.52V19.06h2.33v4.32h3.6v2.15h-3.6v8.42c0,2,.5,2.81,2.37,2.81l1.23,0v2.11c-.41,0-.92.06-1.45.06C285.68,38.9,284.23,37.61,284.23,34.29Z" style="fill: #fff"/>
      <path d="M293.12,16.88a1.81,1.81,0,0,1,2.49,0,1.7,1.7,0,0,1,0,2.49,1.76,1.76,0,1,1-2.49-2.49Zm.09,22V23.38h2.33V38.84Z" style="fill: #fff"/>
      <path d="M301.31,36.85a8.08,8.08,0,0,1-2.21-5.74,8.08,8.08,0,0,1,2.21-5.74,7.7,7.7,0,0,1,11.11,0,8,8,0,0,1,2.27,5.74,8.11,8.11,0,0,1-2.24,5.74,7.81,7.81,0,0,1-11.14,0Zm9.43-1.51a6.15,6.15,0,0,0,1.51-4.23,6,6,0,0,0-1.51-4.2,5.24,5.24,0,0,0-7.73,0,6,6,0,0,0-1.52,4.2A6.15,6.15,0,0,0,303,35.34a5.3,5.3,0,0,0,7.73,0Z" style="fill: #fff"/>
      <path d="M320.47,23.38v1.89A6.34,6.34,0,0,1,325.36,23c3.94,0,6.15,2.46,6.15,6.85v9h-2.37V29.66c0-2.87-1.45-4.48-3.94-4.48-3,0-4.67,2.3-4.67,6v7.67H318.2V23.38Z" style="fill: #fff"/>
      <path d="M334.82,34.48c0-3.06,2.3-4.86,5.71-4.86a15.18,15.18,0,0,1,4.23.76V28.8c0-2.3-1.55-3.63-3.82-3.63a4.4,4.4,0,0,0-4,2.56l-1.61-1.51A6.11,6.11,0,0,1,341,23c3.75,0,6.12,2.18,6.12,6.06v9.78h-2.27V37.23a6.11,6.11,0,0,1-4.8,2C337.09,39.18,334.82,37.42,334.82,34.48Zm5.33,2.62a5.8,5.8,0,0,0,4.61-2.46V32.56a13.06,13.06,0,0,0-4.1-.76c-2.37,0-3.5,1.1-3.5,2.75S338.39,37.1,340.15,37.1Z" style="fill: #fff"/>
      <path d="M351.31,38.84V16.72h2.33V38.84Z" style="fill: #fff"/>
      <path d="M369.17,45h-2.33V23.38h2.27v2.11A6.64,6.64,0,0,1,374.37,23a6.5,6.5,0,0,1,5.17,2.37,8.4,8.4,0,0,1,2,5.74,8.4,8.4,0,0,1-2,5.74,6.56,6.56,0,0,1-5.17,2.33,6.49,6.49,0,0,1-5.21-2.4Zm10-13.85a6.42,6.42,0,0,0-1.36-4.23,4.5,4.5,0,0,0-3.66-1.67,4.56,4.56,0,0,0-3.69,1.67,6.41,6.41,0,0,0-1.36,4.23,6.41,6.41,0,0,0,1.36,4.23A4.56,4.56,0,0,0,374.15,37a4.5,4.5,0,0,0,3.66-1.67A6.42,6.42,0,0,0,379.17,31.11Z" style="fill: #fff"/>
      <path d="M393.15,25.43a2.9,2.9,0,0,0-.54,0c-3.66,0-5.14,1.83-5.14,6.85v6.59h-2.33V23.38h2.27v2.05a5.73,5.73,0,0,1,5-2.27,5.13,5.13,0,0,1,.69,0Z" style="fill: #fff"/>
      <path d="M396.76,36.85a8.08,8.08,0,0,1-2.21-5.74,8.08,8.08,0,0,1,2.21-5.74,7.7,7.7,0,0,1,11.11,0,8,8,0,0,1,2.27,5.74,8.11,8.11,0,0,1-2.24,5.74,7.81,7.81,0,0,1-11.14,0Zm9.43-1.51a6.15,6.15,0,0,0,1.51-4.23,6,6,0,0,0-1.51-4.2,5.24,5.24,0,0,0-7.73,0,6,6,0,0,0-1.51,4.2,6.15,6.15,0,0,0,1.51,4.23,5.3,5.3,0,0,0,7.73,0Z" style="fill: #fff"/>
      <path d="M415.07,40.23a5.14,5.14,0,0,0,4.7,2.93c3.31,0,5.11-2.15,5.11-5.39V36.16a5.94,5.94,0,0,1-5,2.33,6.45,6.45,0,0,1-5-2.21,7.84,7.84,0,0,1-2-5.52,7.87,7.87,0,0,1,2-5.55,6.45,6.45,0,0,1,5-2.21,6.12,6.12,0,0,1,5.11,2.37v-2h2.27v14.2c0,4.7-2.87,7.73-7.45,7.73a7.16,7.16,0,0,1-6.4-3.44Zm1.52-5.49a4.38,4.38,0,0,0,3.47,1.55,4.44,4.44,0,0,0,3.5-1.55,5.81,5.81,0,0,0,1.39-4,5.84,5.84,0,0,0-1.39-4,4.44,4.44,0,0,0-3.5-1.55,4.38,4.38,0,0,0-3.47,1.55,5.82,5.82,0,0,0-1.36,4A5.79,5.79,0,0,0,416.59,34.74Z" style="fill: #fff"/>
      <path d="M439.57,25.43a2.89,2.89,0,0,0-.54,0c-3.66,0-5.14,1.83-5.14,6.85v6.59h-2.33V23.38h2.27v2.05a5.73,5.73,0,0,1,5-2.27,5.12,5.12,0,0,1,.69,0Z" style="fill: #fff"/>
      <path d="M441.51,34.48c0-3.06,2.3-4.86,5.71-4.86a15.19,15.19,0,0,1,4.23.76V28.8c0-2.3-1.55-3.63-3.82-3.63a4.41,4.41,0,0,0-4,2.56L442,26.22A6.11,6.11,0,0,1,447.67,23c3.75,0,6.12,2.18,6.12,6.06v9.78h-2.27V37.23a6.11,6.11,0,0,1-4.8,2C443.79,39.18,441.51,37.42,441.51,34.48Zm5.33,2.62a5.8,5.8,0,0,0,4.61-2.46V32.56a13.06,13.06,0,0,0-4.1-.76c-2.37,0-3.5,1.1-3.5,2.75S445.08,37.1,446.85,37.1Z" style="fill: #fff"/>
      <path d="M460.26,23.38v1.86A5.56,5.56,0,0,1,464.71,23a4.91,4.91,0,0,1,4.61,2.56A5.54,5.54,0,0,1,474.14,23c4,0,6,2.27,6,6.85v9h-2.33V29.66c0-3-1.2-4.48-3.6-4.48-2.56,0-4,1.86-4,5.14v8.52h-2.33v-9c0-3.09-1.17-4.64-3.47-4.64-2.65,0-4.07,1.86-4.07,5.14v8.52H458V23.38Z" style="fill: #fff"/>
      <path d="M495.38,38.84h-2.27V16.72h2.33v8.71A6.61,6.61,0,0,1,500.65,23a6.5,6.5,0,0,1,5.17,2.37,8.4,8.4,0,0,1,2,5.74,8.4,8.4,0,0,1-2,5.74,6.56,6.56,0,0,1-5.17,2.33,6.67,6.67,0,0,1-5.27-2.46Zm10.06-7.73a6.42,6.42,0,0,0-1.36-4.23,4.5,4.5,0,0,0-3.66-1.67,4.56,4.56,0,0,0-3.69,1.67,6.41,6.41,0,0,0-1.36,4.23,6.41,6.41,0,0,0,1.36,4.23A4.56,4.56,0,0,0,500.43,37a4.5,4.5,0,0,0,3.66-1.67A6.42,6.42,0,0,0,505.45,31.11Z" style="fill: #fff"/>
      <path d="M515.65,45h-2.56L515.43,39,509,23.38h2.62l5.08,12.84,5-12.84h2.59Z" style="fill: #fff"/>
    </g>
    <g>
      <path d="M177.86,77.3l-6.35,3.64a8.06,8.06,0,0,0-7.21-4c-4.79,0-8.34,3.6-8.34,8.8,0,5.63,3.86,8.8,8.36,8.8a8.44,8.44,0,0,0,7.32-4l5.94,4.2a15.36,15.36,0,0,1-13.19,6.72c-9.36,0-16-6.54-16-15.73S155,70,164.38,70C170.19,70,175.26,72.71,177.86,77.3Z" style="fill: #fff"/>
      <path d="M202,100.89l-2.3-6.37h-12l-2.3,6.37h-7.56l11.63-30.33H198l11.63,30.33ZM197.32,88l-3.68-10.23L190,88Z" style="fill: #fff"/>
      <path d="M233.08,100.89l-13.82-18.5v18.5H212V70.56h6.93l13.82,18.5V70.56H240v30.33Z" style="fill: #fff"/>
      <path d="M266.57,100.89l-2.3-6.37h-12l-2.3,6.37h-7.56L254,70.56h8.64l11.63,30.33ZM261.94,88l-3.68-10.23L254.57,88Z" style="fill: #fff"/>
      <path d="M305.36,85.73c0,9.14-6.28,15.17-15.75,15.17h-13V70.56h13C299.08,70.56,305.36,76.58,305.36,85.73ZM283.87,94.2h5.59c5.63,0,8.34-3.57,8.34-8.47s-2.71-8.47-8.34-8.47h-5.59Z" style="fill: #fff"/>
      <path d="M328.65,100.89l-2.3-6.37h-12l-2.3,6.37h-7.56l11.63-30.33h8.64l11.63,30.33ZM324,88l-3.68-10.23L316.64,88Z" style="fill: #fff"/>
      <path d="M349.29,100.89V70.56h7.24V94.18h15.25v6.72Z" style="fill: #fff"/>
      <path d="M374.15,100.89V70.56h23.14v6.52h-15.9v5.24h15v6.5h-15v5.55h16v6.52Z" style="fill: #fff"/>
      <path d="M423.69,100.89l-2.3-6.37h-12l-2.3,6.37h-7.56l11.63-30.33h8.64l11.63,30.33ZM419.05,88l-3.68-10.23L411.69,88Z" style="fill: #fff"/>
      <path d="M458.2,80.27c0,4.79-3,8.19-8.47,9.06l8.71,11.57h-8.62l-8-11.35h-1.06v11.35h-7.24V70.56h13.19C454.23,70.56,458.2,74.29,458.2,80.27Zm-17.44,3.18h5.87c2.62,0,4.2-1,4.2-3.18s-1.65-3.14-4.2-3.14h-5.87Z" style="fill: #fff"/>
      <path d="M482.88,100.89l-13.82-18.5v18.5h-7.24V70.56h6.93l13.82,18.5V70.56h7.26v30.33Z" style="fill: #fff"/>
      <path d="M494.79,100.89V70.56H502v30.33Z" style="fill: #fff"/>
      <path d="M528,100.89l-13.82-18.5v18.5H507V70.56h6.93l13.82,18.5V70.56H535v30.33Z" style="fill: #fff"/>
      <path d="M565.91,74.4l-5.16,5.07a8.46,8.46,0,0,0-6.48-2.66c-4.85,0-8.34,3.64-8.34,8.93,0,5.81,3.86,9.1,8.36,9.1,4.33,0,6.82-1.86,7.67-5.48h-7.39V83.76h14.56a16.48,16.48,0,0,1,.15,2.27c0,9.71-6.93,15.4-14.73,15.4-9,0-16.08-6.26-16.08-15.71,0-9.21,6.69-15.73,16.14-15.73C559.48,70,563.25,71.62,565.91,74.4Z" style="fill: #fff"/>
      <path d="M612.23,77.3l-6.35,3.64a8.06,8.06,0,0,0-7.21-4c-4.79,0-8.34,3.6-8.34,8.8,0,5.63,3.86,8.8,8.36,8.8a8.44,8.44,0,0,0,7.32-4l5.94,4.2a15.36,15.36,0,0,1-13.19,6.72c-9.36,0-16-6.54-16-15.73S589.4,70,598.76,70C604.56,70,609.63,72.71,612.23,77.3Z" style="fill: #fff"/>
      <path d="M645,85.73c0,9.08-6.63,15.73-16,15.73s-16-6.65-16-15.73S619.64,70,629,70,645,76.65,645,85.73Zm-24.44,0c0,5.2,3.51,8.8,8.45,8.8s8.45-3.6,8.45-8.8-3.51-8.8-8.45-8.8S620.55,80.53,620.55,85.73Z" style="fill: #fff"/>
      <path d="M677.19,85.73c0,9.14-6.28,15.17-15.75,15.17h-13V70.56h13C670.91,70.56,677.19,76.58,677.19,85.73ZM655.7,94.2h5.59c5.63,0,8.34-3.57,8.34-8.47s-2.71-8.47-8.34-8.47H655.7Z" style="fill: #fff"/>
      <path d="M680.66,100.89V70.56H703.8v6.52H687.9v5.24h15v6.5h-15v5.55h16v6.52Z" style="fill: #fff"/>
    </g>
    <g>
      <rect x="50.67" y="51.11" width="15.79" height="15.79" transform="translate(-24.57 58.69) rotate(-45)" style="fill: #fff"/>
      <path d="M58.56,1.44A57.56,57.56,0,1,0,116.12,59,57.63,57.63,0,0,0,58.56,1.44ZM91.23,70.58a3.52,3.52,0,0,1-5,5L74.69,64,63.52,75.13,75.1,86.71a3.52,3.52,0,0,1-5,5L58.56,80.09,47,91.67a3.52,3.52,0,0,1-5-5L53.6,75.13,42.43,64,30.85,75.54a3.28,3.28,0,0,1-4.76-.2,3.28,3.28,0,0,1-.2-4.76L37.47,59,25.89,47.42a3.28,3.28,0,0,1,.2-4.76,3.28,3.28,0,0,1,4.76-.2L42.43,54,53.6,42.87,42,31.29a3.28,3.28,0,0,1,.2-4.76,3.28,3.28,0,0,1,4.76-.2L58.56,37.91,70.14,26.33a3.28,3.28,0,0,1,4.76.2,3.28,3.28,0,0,1,.2,4.76L63.52,42.87,74.69,54,86.27,42.46a3.52,3.52,0,0,1,5,5L79.65,59Z" style="fill: #fff"/>
    </g>
  </g>
</svg>
