<svg xmlns="http://www.w3.org/2000/svg" viewBox="0 0 1335 105">
  <title>Teachers-Logo-Long-WhiteText</title>
  <g>
    <g>
      <path d="M95.55,34.69c0-3.48-.46-4.06-4.06-4.06-4.64,0-6.73-.81-6.73-4.29a4.53,4.53,0,0,1,4.41-4.18h4.06c2.09,0,2.32-.46,2.32-3.71V8.94c0-3.25.58-5.92,4.52-5.92s4.41,2.78,4.41,5.8V20.31c0,1.74.35,1.86,2,1.86h11.6c4.76,0,5.92,1.51,5.92,4.29,0,2.2-1,4.18-6.26,4.18H107.5c-2.67,0-3,.23-3,2.32V61c0,10.44,2.32,13.8,8.47,13.8,7,0,8.24-5.92,8.24-11.48V59.63c0-5.34,1.28-7.31,4.64-7.31s4.29,2.78,4.29,5.57c0,13.46-2.2,25.06-18.56,25.06-5.45,0-11-2-13.69-7-1.74-3.36-2.32-6.15-2.32-15.66Z" style="fill: #fff"/>
      <path d="M145,53.72c-.46,11.83,5.92,22.62,18.68,22.62,7.89,0,13.8-3.94,16-11.48.7-2.44,1.28-5.1,4.41-5.1a4.39,4.39,0,0,1,4.64,4.41c0,4.76-3.48,10.21-6.84,13.34-4.87,4.64-12.3,6.73-18.91,6.73-18.21,0-27.61-13.57-27.61-30.74,0-7.89,2-16.36,6.84-22.62a26.88,26.88,0,0,1,21.34-10.21c15.66,0,26.33,11.25,26.33,26.8,0,5.8,0,6.26-5.57,6.26Zm35.26-8.35c-.58-9.51-6-16.82-16.36-16.82-10,0-17.05,7.08-17.86,16.82Z" style="fill: #fff"/>
      <path d="M244.61,63.93c-.12,3.6-1.16,12.64,4.41,12.64,5,0,4.18-7.42,4.18-10.79s-.46-7,3.71-7c3.25,0,4.06,2.09,4.06,4.76,0,8.82,0,12.76-2.44,16s-6.38,4.18-10.21,4.18c-5.68,0-10.67-2.55-11.83-8.35-4.06,6.5-11.37,8.82-18.79,8.82-4.76,0-9.74-.81-13.8-3.36a16.21,16.21,0,0,1-7.77-13.8c0-6.5,2.55-11.6,7.89-14.73,5.1-3,9.86-3.48,15.54-4.18,7-.7,16.12-.58,16.12-9.16,0-7.77-6.26-10.44-13.11-10.44a18.53,18.53,0,0,0-8.93,2.55c-.93.58-2.67,1.74-2.67,3,0,.58,2.78.7,2.78,4.76,0,3.48-3,5.45-6.26,5.45a7.21,7.21,0,0,1-7.19-7.42c0-5,3.25-9.16,7.19-11.95,4.18-2.9,10.21-4.29,15.31-4.29,5.45,0,11.48,1.28,15.89,4.64,5.68,4.41,6.5,10.67,6.38,17.63ZM217.81,76.34c5.45,0,11.13-1.62,14.62-6.15,2.55-3.6,2.9-7.19,2.9-11.25,0-2.44.12-5,.23-7.42-4.29,4.18-10.67,4.41-16.24,5-6.15.58-13.57,2.09-13.57,10.09C205.75,73.55,211.66,76.34,217.81,76.34Z" style="fill: #fff"/>
      <path d="M306.43,65.09c.81-3.13,1.28-7.19,5.34-7.19a4.61,4.61,0,0,1,4.52,4.52c0,4.52-3.36,11-6.38,14.27-4.76,5.22-11.6,7.54-18.56,7.54-17.63,0-26.91-14.38-26.91-30.62,0-18,9.16-32.94,28.54-32.94a25.2,25.2,0,0,1,14,4.18c4.41,3,7.77,8.47,7.77,13.92s-2.67,10.56-8.7,10.56c-3.6,0-6.84-2.55-6.84-6.38,0-3.36,2.9-5.22,6-5.34-.23-6-7.54-9-12.76-9-13.11,0-18.44,12.53-18.44,23.9s4.29,23.9,17.86,23.9C299.13,76.34,304.58,71.93,306.43,65.09Z" style="fill: #fff"/>
      <path d="M377.77,65.43c0,7.89.81,9.74,3.36,9.74,2,0,3.71-.7,5.34-.7a3.75,3.75,0,0,1,3.94,3.83c0,2.67-2.09,4.29-5,4.29-3.94,0-6.5-1.28-11.95-1.28s-8.24,1.28-12.3,1.28c-2.44,0-5-1.62-5-4.29a3.75,3.75,0,0,1,3.94-3.83c1.62,0,3.36.7,5.34.7,2.78,0,3.36-2.44,3.36-9.74V53.83c0-4.64.23-11.83-1-16.24-1.74-6.15-7.19-9-13.22-9-5.1,0-11,1.86-14,6.15s-3,10.09-3,15.2V65.43c0,7.89.81,9.74,3.36,9.74,2,0,3.71-.7,5.34-.7a3.75,3.75,0,0,1,3.94,3.83c0,2.67-2.09,4.29-5,4.29-3.94,0-6.5-1.28-11.95-1.28S325,82.6,320.93,82.6c-2.44,0-5-1.62-5-4.29a3.75,3.75,0,0,1,3.94-3.83c1.63,0,3.37.7,5.34.7,2.79,0,3.37-2.44,3.37-9.74V18.11c0-9.51-1.74-9.74-3.37-9.74-2,0-3.71.7-5.34.7a3.75,3.75,0,0,1-3.94-3.83A4.52,4.52,0,0,1,320.35.94c3.48,0,5.34,1.28,7.66,1.28,3,0,4.06-1.28,6.26-1.28,2.9,0,3.25,1.86,3.25,6V28.2c5.1-5.1,10.21-7.54,17.75-7.54a25.41,25.41,0,0,1,16.36,5.8c5,4.29,6.15,10.09,6.15,16.36Z" style="fill: #fff"/>
      <path d="M399,53.72c-.46,11.83,5.92,22.62,18.68,22.62,7.89,0,13.8-3.94,16-11.48.7-2.44,1.28-5.1,4.41-5.1a4.39,4.39,0,0,1,4.64,4.41c0,4.76-3.48,10.21-6.84,13.34C431,82.14,423.59,84.23,417,84.23c-18.21,0-27.61-13.57-27.61-30.74,0-7.89,2-16.36,6.84-22.62a26.87,26.87,0,0,1,21.34-10.21c15.66,0,26.33,11.25,26.33,26.8,0,5.8,0,6.26-5.57,6.26Zm35.26-8.35c-.58-9.51-6-16.82-16.36-16.82-10,0-17.05,7.08-17.86,16.82Z" style="fill: #fff"/>
      <path d="M459.44,39.45c0-7.89-.93-9.74-3.48-9.74-2,0-3.71.7-6.73.7a3.75,3.75,0,0,1-3.94-3.83c0-2.67,2.55-4.29,5.22-4.29,2.2,0,3.94,1.28,6.73,1.28s4.41-1.28,6.61-1.28c3,0,3.36,2.44,3.25,7.08h.23c3.6-5.92,9.4-8.7,16.36-8.7,9.74,0,18.68,5.8,18.68,16.36,0,5.92-2.67,11.95-9.74,11.95-3.13,0-6.26-2.2-6.26-5.57a5,5,0,0,1,4.76-5,7.06,7.06,0,0,1,1.51.35,5.39,5.39,0,0,0,.7-2.67c0-5.22-5.68-8.12-10.32-8.12-8.82,0-14.62,5.1-14.62,21.92V65.43c0,8.47,1.62,9.74,3.71,9.74s3.71-.7,5.34-.7a3.75,3.75,0,0,1,3.94,3.83c0,2.67-2.55,4.29-5,4.29-3.94,0-7.19-1.28-11.95-1.28s-7.54,1.28-12.3,1.28c-2.67,0-5.22-1.62-5.22-4.29a3.75,3.75,0,0,1,3.94-3.83c1.62,0,3.36.7,5.34.7,2.55,0,3.25-1.62,3.25-9.74Z" style="fill: #fff"/>
      <path d="M507.92,39.45c0-12.41,11.25-18.79,22.62-18.79,4.76,0,9.86.81,13.69,4.06-.35-2.67.7-4.87,3.71-4.87,2.44,0,3.94,1.39,3.94,3.83,0,2.9-.7,5.68-.7,8.58s.7,5.8.7,8.58a4,4,0,0,1-4.18,4.29c-2.32,0-3.71-1.74-3.71-5.57,0-4.52-.46-5.34-2.55-6.84-3-2.2-7.19-4.18-10.9-4.18-6,0-13,3.25-13,10.21,0,5.68,3.83,7.66,13.8,8.93,15.78,2.09,24,5.34,24,17.52,0,13.11-12.3,19-24,19-6.15,0-12.18-1.51-16.94-5.45.58,4.29-1.39,6.5-3.94,6.5-3,0-4.41-2.2-4.41-4.87,0-3.36.93-6.5.93-9.74,0-3-.93-6.15-.93-9.28a3.81,3.81,0,0,1,4.06-4.18c2.09,0,3.48.93,3.6,3.83.58,6.84.58,8.24,3.13,10.44,3.71,3.25,10.67,4.87,15.43,4.87,3.25,0,6.84-.58,9.51-2.67a9.79,9.79,0,0,0,3.94-7.54c0-7.19-6.73-8.82-12.53-9.51C522.07,55.34,507.92,53.72,507.92,39.45Z" style="fill: #fff"/>
      <path d="M603.39,18.11c0-9.51-1.74-9.74-3.36-9.74-2,0-3.71.7-6.38.7a3.75,3.75,0,0,1-3.94-3.83c0-2.67,2.55-4.29,5.34-4.29,3.6,0,5.45,1.28,7.77,1.28,3,0,4.06-1.28,6.26-1.28,2.9,0,3.25,1.86,3.25,6V65.43c0,8.47,1.39,9.74,3.36,9.74s3.71-.7,5.34-.7A3.75,3.75,0,0,1,625,78.31c0,2.67-2.55,4.29-5,4.29-3.94,0-6.26-1.28-11.95-1.28-5.34,0-8.24,1.28-12.3,1.28-2.44,0-5-1.62-5-4.29a3.75,3.75,0,0,1,3.94-3.83c1.62,0,3.36.7,5.34.7,2.78,0,3.36-3.13,3.36-9.74Z" style="fill: #fff"/>
      <path d="M634.39,53.72c-.46,11.83,5.92,22.62,18.68,22.62,7.89,0,13.8-3.94,16-11.48.7-2.44,1.28-5.1,4.41-5.1a4.39,4.39,0,0,1,4.64,4.41c0,4.76-3.48,10.21-6.84,13.34-4.87,4.64-12.3,6.73-18.91,6.73-18.21,0-27.61-13.57-27.61-30.74,0-7.89,2-16.36,6.84-22.62A26.88,26.88,0,0,1,653,20.66c15.66,0,26.33,11.25,26.33,26.8,0,5.8,0,6.26-5.57,6.26Zm35.26-8.35c-.58-9.51-6-16.82-16.36-16.82-10,0-17.05,7.08-17.86,16.82Z" style="fill: #fff"/>
      <path d="M733.46,63.93c-.12,3.6-1.16,12.64,4.41,12.64,5,0,4.18-7.42,4.18-10.79s-.46-7,3.71-7c3.25,0,4.06,2.09,4.06,4.76,0,8.82,0,12.76-2.44,16s-6.38,4.18-10.21,4.18c-5.68,0-10.67-2.55-11.83-8.35-4.06,6.5-11.37,8.82-18.79,8.82-4.76,0-9.74-.81-13.8-3.36A16.21,16.21,0,0,1,685,67.06c0-6.5,2.55-11.6,7.89-14.73,5.1-3,9.86-3.48,15.54-4.18,7-.7,16.12-.58,16.12-9.16,0-7.77-6.26-10.44-13.11-10.44a18.53,18.53,0,0,0-8.93,2.55c-.93.58-2.67,1.74-2.67,3,0,.58,2.78.7,2.78,4.76,0,3.48-3,5.45-6.26,5.45a7.21,7.21,0,0,1-7.19-7.42c0-5,3.25-9.16,7.19-11.95,4.18-2.9,10.21-4.29,15.31-4.29,5.45,0,11.48,1.28,15.89,4.64,5.68,4.41,6.5,10.67,6.38,17.63ZM706.66,76.34c5.45,0,11.14-1.62,14.62-6.15,2.55-3.6,2.9-7.19,2.9-11.25,0-2.44.12-5,.23-7.42-4.29,4.18-10.67,4.41-16.24,5-6.15.58-13.57,2.09-13.57,10.09C694.6,73.55,700.51,76.34,706.66,76.34Z" style="fill: #fff"/>
      <path d="M764.78,39.45c0-7.89-.93-9.74-3.48-9.74-2,0-3.71.7-6.73.7a3.75,3.75,0,0,1-3.94-3.83c0-2.67,2.55-4.29,5.22-4.29,2.2,0,3.94,1.28,6.73,1.28s4.41-1.28,6.61-1.28c3,0,3.36,2.44,3.25,7.08h.23c3.6-5.92,9.4-8.7,16.36-8.7,9.74,0,18.68,5.8,18.68,16.36C807.69,42.93,805,49,798,49c-3.13,0-6.26-2.2-6.26-5.57a5,5,0,0,1,4.76-5,7.09,7.09,0,0,1,1.51.35,5.4,5.4,0,0,0,.7-2.67c0-5.22-5.68-8.12-10.32-8.12-8.82,0-14.62,5.1-14.62,21.92V65.43c0,8.47,1.62,9.74,3.71,9.74s3.71-.7,5.34-.7a3.75,3.75,0,0,1,3.94,3.83c0,2.67-2.55,4.29-5,4.29-3.94,0-7.19-1.28-11.95-1.28s-7.54,1.28-12.3,1.28c-2.67,0-5.22-1.62-5.22-4.29a3.75,3.75,0,0,1,3.94-3.83c1.62,0,3.36.7,5.34.7,2.55,0,3.25-1.62,3.25-9.74Z" style="fill: #fff"/>
      <path d="M822.66,39.57c0-8-.7-9.86-3.36-9.86-2,0-3.71.7-5.34.7A3.75,3.75,0,0,1,810,26.57a4.82,4.82,0,0,1,4.29-4.29c2.44,0,3.25,1.28,6.26,1.28,3.36,0,4.41-1.28,7.31-1.28,2.44,0,2.55,2.55,2.55,7h.23c4.41-6,12.18-8.58,19.37-8.58a25,25,0,0,1,16.82,6.26c5.1,4.64,5.34,10.56,5.34,16.94V65.43c0,7.08.7,9.86,3.36,9.86,2,0,3.71-.7,5.34-.7a3.75,3.75,0,0,1,3.94,3.83c0,2.67-1.86,4.18-5,4.18-3.83,0-6.61-1.28-11.83-1.28-5.57,0-8.24,1.28-12.41,1.28-3.13,0-5-1.51-5-4.18a3.75,3.75,0,0,1,3.94-3.83c1.63,0,3.37.7,5.34.7,2.9,0,3.36-2.55,3.36-9.86V48.27c0-7.42,0-9.74-1.86-13.34-2.32-4.52-7.77-6.38-12.64-6.38-5.22,0-11.25,2.2-14.15,6.73-1.39,2.2-3,4.76-3,16.36V65.32c0,7.08.7,9.86,3.36,9.86,2,0,3.71-.7,5.34-.7a3.75,3.75,0,0,1,3.94,3.83c0,2.67-1.86,4.29-5,4.29-3.83,0-6.61-1.28-11.83-1.28-5.57,0-8.24,1.28-12.41,1.28-3.13,0-5-1.62-5-4.29A3.75,3.75,0,0,1,814,74.48c1.62,0,3.36.7,5.34.7,2.9,0,3.36-2.55,3.36-9.86Z" style="fill: #fff"/>
      <path d="M900.84,39.45c0-8.12-.81-9.74-3.36-9.74-2,0-3.71.7-5.34.7a3.75,3.75,0,0,1-3.94-3.83,4,4,0,0,1,4.06-4.29c3.13,0,4.87,1.28,7.66,1.28s4.41-1.28,6.61-1.28c2.67,0,3.25,2.67,3.25,5V70.42c0,2.78.93,4.76,3,4.76,1.28,0,2.9-.81,4.64-.7a3.75,3.75,0,0,1,3.94,3.83c0,2.67-2.55,4.29-5,4.29-3.94,0-7-1.28-11.95-1.28s-8.24,1.28-12.3,1.28a4.4,4.4,0,0,1-3.94-4.29,3.75,3.75,0,0,1,3.94-3.83c1.63,0,3.36.7,5.34.7,2.67,0,3.36-2.55,3.36-9.74ZM910,9.64a6.67,6.67,0,1,1-13.34,0,6.67,6.67,0,0,1,13.34,0Z" style="fill: #fff"/>
      <path d="M937.29,39.57c0-8-.7-9.86-3.36-9.86-2,0-3.71.7-5.34.7a3.75,3.75,0,0,1-3.94-3.83,4.82,4.82,0,0,1,4.29-4.29c2.44,0,3.25,1.28,6.26,1.28,3.36,0,4.41-1.28,7.31-1.28,2.44,0,2.55,2.55,2.55,7h.23c4.41-6,12.18-8.58,19.37-8.58a25,25,0,0,1,16.82,6.26c5.1,4.64,5.34,10.56,5.34,16.94V65.43c0,7.08.7,9.86,3.36,9.86,2,0,3.71-.7,5.34-.7a3.75,3.75,0,0,1,3.94,3.83c0,2.67-1.86,4.18-5,4.18-3.83,0-6.61-1.28-11.83-1.28-5.57,0-8.24,1.28-12.41,1.28-3.13,0-5-1.51-5-4.18a3.75,3.75,0,0,1,3.94-3.83c1.62,0,3.36.7,5.34.7,2.9,0,3.36-2.55,3.36-9.86V48.27c0-7.42,0-9.74-1.86-13.34-2.32-4.52-7.77-6.38-12.64-6.38-5.22,0-11.25,2.2-14.15,6.73-1.39,2.2-3,4.76-3,16.36V65.32c0,7.08.7,9.86,3.36,9.86,2,0,3.71-.7,5.34-.7a3.75,3.75,0,0,1,3.94,3.83c0,2.67-1.86,4.29-5,4.29-3.83,0-6.61-1.28-11.83-1.28-5.57,0-8.24,1.28-12.41,1.28-3.13,0-5-1.62-5-4.29a3.75,3.75,0,0,1,3.94-3.83c1.62,0,3.36.7,5.34.7,2.9,0,3.36-2.55,3.36-9.86Z" style="fill: #fff"/>
      <path d="M1028.23,66.94c6.61,0,13.11.23,19.37,2.32,7.31,2.44,13.57,7.89,13.57,16.24,0,14.85-18.33,18.56-29.93,18.56s-29.35-3.13-29.35-18c0-6.84,4.64-11.72,10.9-13.69v-.23c-5.45-1.86-9.74-4.87-9.74-11s4.18-10.09,9.74-11.72c-2.32-2.67-3.25-6.38-3.25-10.09,0-12.06,11.14-18.68,22.16-18.68a23.8,23.8,0,0,1,7,.81c-.35-7.54,6.38-11.95,13.34-11.95,6.26,0,13.11,3.48,13.11,10.56,0,3.36-2.67,6.73-6.26,6.73a4.63,4.63,0,0,1-4.64-4.52c0-1.74,1.28-2.9,2.55-3.83a5.69,5.69,0,0,0-4.87-2.32c-4.64,0-6.61,3.71-6.38,7.89a19,19,0,0,1,9,16.36c0,12.53-10.79,19.6-22,19.6a33.53,33.53,0,0,1-13.34-3.13,9.62,9.62,0,0,0-3.13-.81c-2.55,0-4.29,2.67-4.29,5,0,5.68,8,5.92,12.18,5.92ZM1017.67,77.5c-3.36,1.62-6.15,4.52-6.15,8.47,0,4.41,3.83,7.42,7.54,8.82a40.41,40.41,0,0,0,12.29,1.74c6.61,0,20.18-1.62,20.18-10.79s-12.76-10.56-19.72-10.56C1027.65,75.18,1021.5,75.64,1017.67,77.5Zm28-37.35c-.23-7.31-6.61-11.95-13.57-11.95s-13.11,4.76-13.11,12.06c0,7.66,5.92,11.95,13,11.95S1045.4,48,1045.63,40.15Z" style="fill: #fff"/>
      <path d="M1136.11,65.09c.81-3.13,1.28-7.19,5.34-7.19a4.61,4.61,0,0,1,4.52,4.52c0,4.52-3.36,11-6.38,14.27-4.76,5.22-11.6,7.54-18.56,7.54-17.63,0-26.91-14.38-26.91-30.62,0-18,9.16-32.94,28.54-32.94a25.19,25.19,0,0,1,14,4.18c4.41,3,7.77,8.47,7.77,13.92s-2.67,10.56-8.7,10.56c-3.6,0-6.84-2.55-6.84-6.38,0-3.36,2.9-5.22,6-5.34-.23-6-7.54-9-12.76-9-13.11,0-18.44,12.53-18.44,23.9s4.29,23.9,17.86,23.9C1128.8,76.34,1134.25,71.93,1136.11,65.09Z" style="fill: #fff"/>
      <path d="M1178.91,20.66c8.35,0,15.89,2.2,21.23,8.82,5.1,6.26,7.31,14.85,7.31,22.74,0,17.63-9.86,32-28.65,32-18.44,0-27.49-14.73-27.49-31.67S1160.24,20.66,1178.91,20.66Zm0,55.68c14.27,0,18.91-12.3,18.91-24.59,0-5.34-1.16-11.83-4.18-16.47-3.13-4.87-8.47-6.73-14-6.73-6.5,0-11.37,2.2-14.73,7.89a32.81,32.81,0,0,0-3.94,15.78C1160.93,63.69,1165.34,76.34,1178.91,76.34Z" style="fill: #fff"/>
      <path d="M1267.19,65.43c0,8,.93,9.74,3.36,9.74,2,0,3.71-.7,5.34-.7a3.75,3.75,0,0,1,3.94,3.83A4,4,0,0,1,1276,82.6c-2.09,0-4.18-1.28-6.84-1.28s-3.48,1.28-6.26,1.28c-3,0-4.06-1.16-4.06-5.57V75.87h-.23c-3.6,5.92-11,8.35-17.86,8.35-18.44,0-27-15.31-27-32.13,0-16.36,8.35-31.44,26.33-31.44,7.19,0,13.92,2.32,18,8.7h.23V18.11c0-8.58-1.16-9.74-3.36-9.74-2,0-3.71.7-5.34.7a3.75,3.75,0,0,1-3.94-3.83A4.38,4.38,0,0,1,1250,.94c3.25,0,5,1.28,8.24,1.28,3,0,4.64-1.28,7-1.28,1.28,0,2,.93,2,5Zm-43.85-12.76c0,11.37,5.1,23.66,18,23.66,5.92,0,11.6-2.55,14.27-8,2.32-4.64,2.67-10.9,2.67-16.36s-.35-12.18-3.71-16.82-8.24-6.61-13.92-6.61C1227.28,28.55,1223.34,41.42,1223.34,52.67Z" style="fill: #fff"/>
      <path d="M1288.65,53.72c-.46,11.83,5.92,22.62,18.68,22.62,7.89,0,13.8-3.94,16-11.48.7-2.44,1.28-5.1,4.41-5.1a4.39,4.39,0,0,1,4.64,4.41c0,4.76-3.48,10.21-6.84,13.34-4.87,4.64-12.3,6.73-18.91,6.73-18.21,0-27.61-13.57-27.61-30.74,0-7.89,2-16.36,6.84-22.62a26.88,26.88,0,0,1,21.34-10.21c15.66,0,26.33,11.25,26.33,26.8,0,5.8,0,6.26-5.57,6.26Zm35.26-8.35c-.58-9.51-6-16.82-16.36-16.82-10,0-17.05,7.08-17.86,16.82Z" style="fill: #fff"/>
    </g>
    <path d="M58.79,45.31,70.93,33.18a3.44,3.44,0,0,0-.21-5,3.44,3.44,0,0,0-5-.21L53.59,40.11l-11.7-11.7L54,16.27a3.44,3.44,0,0,0-.21-5,3.44,3.44,0,0,0-5-.21L36.68,23.21,24.55,11.07a3.44,3.44,0,0,0-5,.21,3.44,3.44,0,0,0-.21,5L31.48,28.41l-11.7,11.7L7.64,28a3.44,3.44,0,0,0-5,.21,3.44,3.44,0,0,0-.21,5L14.58,45.31,2.44,57.45a3.44,3.44,0,0,0,.21,5,3.44,3.44,0,0,0,5,.21L19.78,50.52l11.7,11.7L19.34,74.36a3.44,3.44,0,0,0,.21,5,3.44,3.44,0,0,0,5,.21L36.68,67.42,48.82,79.56a3.69,3.69,0,0,0,5.2-5.2L41.89,62.22l11.7-11.7L65.73,62.65a3.69,3.69,0,0,0,5.2-5.2ZM36.68,57,25,45.31l11.7-11.7,11.7,11.7Z" style="fill: #ffa700"/>
  </g>
</svg>
